<?xml version="1.0" encoding="UTF-8"?>
<svg width="161px" height="110px" viewBox="0 0 161 110" version="1.1" xmlns="http://www.w3.org/2000/svg" xmlns:xlink="http://www.w3.org/1999/xlink">
    <title>ANFR</title>
    <defs>
        <polygon id="path-1" points="0 109.557031 160.756 109.557031 160.756 0 0 0"></polygon>
        <polygon id="path-3" points="2.00822828e-14 0 5.82506621 0 5.82506621 7.5265169 2.00822828e-14 7.5265169"></polygon>
        <path d="M2.0603946,0.68114554 C-0.6867982,22.4523658 -0.6867982,43.6215778 2.0603946,65.3984508 L2.0603946,65.3984508 C2.1126817,65.7644605 2.52391273,66.0753568 2.96340705,66.07677 L2.96340705,66.07677 C3.40855403,66.07677 3.81413239,65.7701132 3.86641949,65.3942113 L3.86641949,65.3942113 C6.61219913,43.6258173 6.61219913,22.4566053 3.86641949,0.676906045 L3.86641949,0.676906045 C3.81413239,0.310896304 3.40007504,0 2.96340705,0 L2.96340705,0 C2.51826007,0 2.1126817,0.305243644 2.0603946,0.68114554" id="path-5"></path>
        <linearGradient x1="219.337576%" y1="50.0000096%" x2="-264.389827%" y2="50.0000096%" id="linearGradient-7">
            <stop stop-color="#2D54A3" offset="0%"></stop>
            <stop stop-color="#C8368C" offset="100%"></stop>
        </linearGradient>
        <path d="M1.20066039,0.610487289 C-0.400455579,13.187656 -0.400455579,25.4200124 1.20207355,38.0014205 L1.20207355,38.0014205 C1.25012116,38.322209 1.67265751,38.6062552 2.10367284,38.6062552 L2.10367284,38.6062552 C2.53610133,38.6062552 2.95722451,38.322209 3.00527212,37.9971811 L3.00527212,37.9971811 C4.60780125,25.4200124 4.60780125,13.1890691 3.00385895,0.604834629 L3.00385895,0.604834629 C2.95722451,0.284046169 2.53610133,0 2.10367284,0 L2.10367284,0 C1.67265751,0 1.25012116,0.285459334 1.20066039,0.610487289" id="path-8"></path>
        <linearGradient x1="542.761085%" y1="50.0000033%" x2="-138.592585%" y2="50.0000033%" id="linearGradient-10">
            <stop stop-color="#2D54A3" offset="0%"></stop>
            <stop stop-color="#C8368C" offset="100%"></stop>
        </linearGradient>
        <path d="M0.91785068,0.561026513 C-0.305950227,9.07110626 -0.305950227,17.3466006 0.91785068,25.8566804 L0.91785068,25.8566804 C0.965898291,26.1167027 1.42517692,26.4120542 1.96641913,26.4120542 L1.96641913,26.4120542 C2.52603247,26.4120542 2.96835312,26.1152896 3.01640073,25.8482014 L3.01640073,25.8482014 C4.24020164,17.340948 4.24020164,9.0654536 3.01498757,0.553960688 L3.01498757,0.553960688 C2.96835312,0.293938324 2.51048766,0 1.96641913,0 L1.96641913,0 C1.40680578,0 0.965898291,0.296764654 0.91785068,0.561026513" id="path-11"></path>
        <linearGradient x1="1087.54424%" y1="50.0000032%" x2="358.923206%" y2="50.0000032%" id="linearGradient-13">
            <stop stop-color="#2D54A3" offset="0%"></stop>
            <stop stop-color="#C8368C" offset="100%"></stop>
        </linearGradient>
        <path d="M1.47516768,0.611900454 C-0.491958025,15.4840491 -0.491958025,29.9463799 1.47658085,44.8227681 L1.47658085,44.8227681 C1.52604162,45.1506224 1.93727264,45.4290159 2.37818013,45.4290159 L2.37818013,45.4290159 C2.81060863,45.4290159 3.2317318,45.1435566 3.28119258,44.8171154 L3.28119258,44.8171154 C5.24549196,29.9421404 5.24549196,15.4798096 3.27977941,0.606247794 L3.27977941,0.606247794 C3.23031864,0.278393509 2.81626129,0 2.37818013,0 L2.37818013,0 C1.93868581,0 1.52604162,0.279806674 1.47516768,0.611900454" id="path-14"></path>
        <linearGradient x1="698.736642%" y1="50.0000028%" x2="95.8118026%" y2="50.0000028%" id="linearGradient-16">
            <stop stop-color="#2D54A3" offset="0%"></stop>
            <stop stop-color="#C8368C" offset="100%"></stop>
        </linearGradient>
        <path d="M1.44973071,0.623205774 C-0.483479034,15.4868755 -0.483479034,29.9407273 1.45114388,44.8100496 L1.45114388,44.8100496 C1.49919149,45.1449697 1.914662,45.4290159 2.35133,45.4290159 L2.35133,45.4290159 C2.78375849,45.4290159 3.20488167,45.1379039 3.25434244,44.8058101 L3.25434244,44.8058101 C5.18755219,29.9379009 5.18755219,15.4840491 3.25434244,0.618966279 L3.25434244,0.618966279 C3.20488167,0.284046169 2.79223748,0 2.35133,0 L2.35133,0 C1.914662,0 1.49919149,0.285459334 1.44973071,0.623205774" id="path-17"></path>
        <linearGradient x1="30.1978273%" y1="50.0000028%" x2="-579.134127%" y2="50.0000028%" id="linearGradient-19">
            <stop stop-color="#2D54A3" offset="0%"></stop>
            <stop stop-color="#C8368C" offset="100%"></stop>
        </linearGradient>
        <path d="M0.788369524,0.548308028 C-0.26302525,8.68248588 -0.26302525,16.5933837 0.789782689,24.7289747 L0.789782689,24.7289747 C0.833590805,25.0158472 1.25471398,25.2688037 1.68996881,25.2688037 L1.68996881,25.2688037 C2.12381047,25.2688037 2.54493364,25.0130209 2.58874176,24.7219089 L2.58874176,24.7219089 C3.63872337,16.5891442 3.63872337,8.67824639 2.58732859,0.539829038 L2.58732859,0.539829038 C2.54493364,0.254369704 2.12381047,0 1.68996881,0 L1.68996881,0 C1.25471398,0 0.833590805,0.255782869 0.788369524,0.548308028" id="path-20"></path>
        <linearGradient x1="-264.074998%" y1="50.000005%" x2="-1113.12892%" y2="50.000005%" id="linearGradient-22">
            <stop stop-color="#2D54A3" offset="0%"></stop>
            <stop stop-color="#C8368C" offset="100%"></stop>
        </linearGradient>
        <path d="M1.09679277,0.594942473 C-0.365833031,11.8762388 -0.365833031,22.8494652 1.09820593,34.1406537 L1.09820593,34.1406537 C1.14484038,34.45155 1.56596355,34.7285304 1.99839205,34.7285304 L1.99839205,34.7285304 C2.43082054,34.7285304 2.85194372,34.4501369 2.89999133,34.1335879 L2.89999133,34.1335879 C4.36261713,22.8494652 4.36261713,11.8748257 2.89999133,0.589289813 L2.89999133,0.589289813 C2.85194372,0.276980344 2.43082054,0 1.99839205,0 L1.99839205,0 C1.56596355,0 1.14484038,0.278393509 1.09679277,0.594942473" id="path-23"></path>
        <linearGradient x1="-448.402417%" y1="50.0000037%" x2="-1165.55976%" y2="50.0000037%" id="linearGradient-25">
            <stop stop-color="#2D54A3" offset="0%"></stop>
            <stop stop-color="#C8368C" offset="100%"></stop>
        </linearGradient>
        <path d="M0.765228858,0.460691796 C-0.255076286,7.4092242 -0.255076286,14.1698057 0.765228858,21.1225776 L0.765228858,21.1225776 C0.803384314,21.3345523 1.19765735,21.5747904 1.66682814,21.5747904 L1.66682814,21.5747904 C2.13599893,21.5747904 2.53027197,21.3331391 2.56842742,21.1155117 L2.56842742,21.1155117 C3.5873194,14.1669793 3.5873194,7.40639787 2.56701426,0.452212806 L2.56701426,0.452212806 C2.5288588,0.240238053 2.13599893,0 1.66682814,0 L1.66682814,0 C1.19765735,0 0.803384314,0.243064383 0.765228858,0.460691796" id="path-26"></path>
        <linearGradient x1="-826.721508%" y1="50.0000059%" x2="-1686.89214%" y2="50.0000059%" id="linearGradient-28">
            <stop stop-color="#2D54A3" offset="0%"></stop>
            <stop stop-color="#C8368C" offset="100%"></stop>
        </linearGradient>
        <path d="M0.312486339,0.647229579 C-0.104397342,5.50993041 -0.104397342,9.85541285 0.313899504,14.729419 L0.313899504,14.729419 C0.359120785,15.0657523 0.777417631,15.3653433 1.21125929,15.3653433 L1.21125929,15.3653433 C1.64368779,15.3653433 2.06198463,15.0629259 2.10579275,14.7181137 L2.10579275,14.7181137 C2.52267643,9.85399968 2.52267643,5.50851725 2.10437958,0.634511094 L2.10437958,0.634511094 C2.06198463,0.299590984 1.64368779,0 1.21125929,0 L1.21125929,0 C0.777417631,0 0.359120785,0.302417314 0.312486339,0.647229579" id="path-29"></path>
        <linearGradient x1="-1509.86105%" y1="50.0000083%" x2="-2695.1873%" y2="50.0000083%" id="linearGradient-31">
            <stop stop-color="#2D54A3" offset="0%"></stop>
            <stop stop-color="#C8368C" offset="100%"></stop>
        </linearGradient>
        <path d="M1.1073915,0.579397658 C-0.369365944,11.7363355 -0.369365944,22.5894428 1.10880467,33.7534465 L1.10880467,33.7534465 C1.15543911,34.057277 1.57656229,34.3271915 2.00899078,34.3271915 L2.00899078,34.3271915 C2.44141928,34.3271915 2.86254246,34.057277 2.91059007,33.7477938 L2.91059007,33.7477938 C4.38593435,22.5922692 4.38593435,11.740575 2.9091769,0.573744998 L2.9091769,0.573744998 C2.86254246,0.269914519 2.44141928,0 2.00899078,0 L2.00899078,0 C1.57656229,0 1.15543911,0.271327684 1.1073915,0.579397658" id="path-32"></path>
        <linearGradient x1="1305.3297%" y1="50.0000037%" x2="591.736081%" y2="50.0000037%" id="linearGradient-34">
            <stop stop-color="#2D54A3" offset="0%"></stop>
            <stop stop-color="#C8368C" offset="100%"></stop>
        </linearGradient>
        <path d="M0.426775836,0.651469074 C0.146969162,2.6299001 0.00423949506,4.70583952 0,6.7831921 L0,6.7831921 L0,6.93440075 C0.00423949506,9.01034017 0.145555997,11.0848664 0.425362671,13.0590579 L0.425362671,13.0590579 C0.470583952,13.4095229 0.890293963,13.7161797 1.32272246,13.7161797 L1.32272246,13.7161797 C1.75515095,13.7161797 2.1734478,13.410936 2.21866908,13.0632974 L2.21866908,13.0632974 C2.78817458,9.05980094 2.78817458,4.65355241 2.21866908,0.655708569 L2.21866908,0.655708569 C2.1734478,0.305243644 1.75515095,0 1.32272246,0 L1.32272246,0 C0.890293963,0 0.470583952,0.303830479 0.426775836,0.651469074" id="path-35"></path>
        <linearGradient x1="2294.58528%" y1="208.190817%" x2="1211.18833%" y2="208.190817%" id="linearGradient-37">
            <stop stop-color="#2D54A3" offset="0%"></stop>
            <stop stop-color="#C8368C" offset="100%"></stop>
        </linearGradient>
    </defs>
    <g id="Page-1" stroke="none" stroke-width="1" fill="none" fill-rule="evenodd">
        <g id="HOME" transform="translate(-361.000000, -20.000000)">
            <g id="LOGOS" transform="translate(191.000000, 1.000000)">
                <g id="ANFR" transform="translate(170.000000, 19.000000)">
                    <polygon id="Fill-1" fill="#004899" points="3.12747551 101.986989 0.645957731 107.830426 1.43167748 107.830426 3.51892222 102.730314 4.61129878 105.379998 3.14019399 105.379998 2.93104557 105.993312 4.86425531 105.993312 5.62171177 107.830426 6.45830546 107.830426 3.96548236 101.986989"></polygon>
                    <g id="Group-30">
                        <path d="M11.6718952,107.602624 C11.199898,107.782096 10.6911586,107.873952 10.1470901,107.873952 C8.02875574,107.873952 6.97029514,106.857886 6.97029514,104.827168 C6.97029514,102.906677 7.99201345,101.945725 10.0368632,101.945725 C10.6219136,101.945725 11.1659821,102.027688 11.6718952,102.190202 L11.6718952,102.844497 C11.1659821,102.65372 10.6487637,102.559038 10.1174136,102.559038 C8.5233635,102.559038 7.72633843,103.315081 7.72633843,104.827168 C7.72633843,106.449481 8.51205818,107.259225 10.0806714,107.259225 C10.3322147,107.259225 10.6091951,107.228135 10.9158519,107.161717 L10.9158519,105.174807 L11.6718952,105.174807 L11.6718952,107.602624" id="Fill-2" fill="#004899"></path>
                        <polygon id="Fill-4" fill="#004899" points="16.7409181 101.986706 16.7409181 102.598607 13.6757632 102.598607 13.6757632 104.561493 16.5967753 104.561493 16.5967753 105.174807 13.6757632 105.174807 13.6757632 107.219656 16.8030974 107.219656 16.8030974 107.831557 12.9197199 107.831557 12.9197199 101.986706"></polygon>
                        <polygon id="Fill-6" fill="#004899" points="17.9463479 107.831557 17.9463479 101.986706 18.7023911 101.986706 22.2791118 106.696785 22.2791118 101.986706 22.9941733 101.986706 22.9941733 107.831557 22.23813 107.831557 18.6614094 103.081909 18.6614094 107.831557"></polygon>
                        <path d="M28.7994552,107.628061 C28.2935421,107.790575 27.7494736,107.873952 27.1644233,107.873952 C25.1209867,107.873952 24.0978552,106.857886 24.0978552,104.827168 C24.0978552,102.906677 25.1209867,101.945725 27.1644233,101.945725 C27.7494736,101.945725 28.2935421,102.027688 28.7994552,102.190202 L28.7994552,102.844497 C28.2935421,102.65372 27.7763237,102.559038 27.2449737,102.559038 C25.6509235,102.559038 24.8538985,103.315081 24.8538985,104.827168 C24.8538985,106.449481 25.6509235,107.259225 27.2449737,107.259225 C27.7763237,107.259225 28.2935421,107.164543 28.7994552,106.973766 L28.7994552,107.628061" id="Fill-8" fill="#004899"></path>
                        <polygon id="Fill-10" fill="#004899" points="33.8684781 101.986706 33.8684781 102.598607 30.8033232 102.598607 30.8033232 104.561493 33.7243353 104.561493 33.7243353 105.174807 30.8033232 105.174807 30.8033232 107.219656 33.9306574 107.219656 33.9306574 107.831557 30.0472799 107.831557 30.0472799 101.986706"></polygon>
                        <polygon id="Fill-12" fill="#004899" points="37.1187577 107.831557 37.1187577 101.986706 37.874801 101.986706 41.4501085 106.696785 41.4501085 101.986706 42.1665831 101.986706 42.1665831 107.831557 41.4105398 107.831557 37.8338192 103.081909 37.8338192 107.831557"></polygon>
                        <polygon id="Fill-14" fill="#004899" points="43.749328 107.831557 42.9636082 107.831557 45.445126 101.986706 46.2831328 101.986706 48.7773691 107.831557 47.9393622 107.831557 47.1833189 105.993029 45.2501092 105.993029 45.4578445 105.379716 46.9289492 105.379716 45.8379859 102.730031"></polygon>
                        <polygon id="Fill-16" fill="#004899" points="52.9066373 101.986706 52.9066373 102.598607 51.0666964 102.598607 51.0666964 107.831557 50.3106531 107.831557 50.3106531 102.598607 48.4707123 102.598607 48.4707123 101.986706"></polygon>
                        <mask id="mask-2" fill="white">
                            <use xlink:href="#path-1"></use>
                        </mask>
                        <g id="Clip-19"></g>
                        <polygon id="Fill-18" fill="#004899" mask="url(#mask-2)" points="53.9263772 107.83297 54.6824204 107.83297 54.6824204 101.986706 53.9263772 101.986706"></polygon>
                        <path d="M58.9267203,107.259225 C60.3229273,107.259225 61.0210308,106.470679 61.0210308,104.892174 C61.0210308,103.337692 60.3229273,102.559038 58.9267203,102.559038 C57.5008368,102.559038 56.7900148,103.337692 56.7900148,104.892174 C56.7900148,106.470679 57.5008368,107.259225 58.9267203,107.259225 M55.9915765,104.917611 C55.9915765,102.93494 56.9694867,101.945725 58.9267203,101.945725 C60.8542774,101.945725 61.8166427,102.93494 61.8166427,104.917611 C61.8166427,106.887563 60.8542774,107.873952 58.9267203,107.873952 C56.9694867,107.873952 55.9915765,106.887563 55.9915765,104.917611" id="Fill-20" fill="#004899" mask="url(#mask-2)"></path>
                        <polygon id="Fill-21" fill="#004899" mask="url(#mask-2)" points="63.0022882 107.831557 63.0022882 101.986706 63.7583315 101.986706 67.333639 106.696785 67.333639 101.986706 68.0501136 101.986706 68.0501136 107.831557 67.2940703 107.831557 63.7173497 103.081909 63.7173497 107.831557"></polygon>
                        <polygon id="Fill-22" fill="#004899" mask="url(#mask-2)" points="69.6342716 107.831557 68.8485519 107.831557 71.3300696 101.986706 72.1666633 101.986706 74.6608996 107.831557 73.8228927 107.831557 73.0668495 105.993029 71.1336397 105.993029 71.3427881 105.379716 72.8138929 105.379716 71.7215164 102.730031"></polygon>
                        <polygon id="Fill-23" fill="#004899" mask="url(#mask-2)" points="76.2153811 101.986706 76.2153811 107.219656 79.2720571 107.219656 79.2720571 107.831557 75.4593378 107.831557 75.4593378 101.986706"></polygon>
                        <polygon id="Fill-24" fill="#004899" mask="url(#mask-2)" points="83.9920282 101.986706 83.9920282 102.598607 80.9282865 102.598607 80.9282865 104.561493 83.8492986 104.561493 83.8492986 105.174807 80.9282865 105.174807 80.9282865 107.219656 84.0542075 107.219656 84.0542075 107.831557 80.1722432 107.831557 80.1722432 101.986706"></polygon>
                        <path d="M89.3691211,107.219656 C90.8006573,107.219656 91.5143056,106.395781 91.5143056,104.750857 C91.5143056,103.316495 90.8006573,102.598607 89.3691211,102.598607 L87.9997642,102.598607 L87.9997642,107.219656 L89.3691211,107.219656 Z M87.2437209,107.831557 L87.2437209,101.986706 L89.3691211,101.986706 C91.303744,101.986706 92.2717621,102.90809 92.2717621,104.750857 C92.2717621,106.805599 91.303744,107.831557 89.3691211,107.831557 L87.2437209,107.831557 L87.2437209,107.831557 Z" id="Fill-25" fill="#004899" mask="url(#mask-2)"></path>
                        <polygon id="Fill-26" fill="#004899" mask="url(#mask-2)" points="97.1966422 101.986706 97.1966422 102.598607 94.1314872 102.598607 94.1314872 104.561493 97.0524993 104.561493 97.0524993 105.174807 94.1314872 105.174807 94.1314872 107.219656 97.2588214 107.219656 97.2588214 107.831557 93.375444 107.831557 93.375444 101.986706"></polygon>
                        <path d="M98.3201084,107.628061 L98.3201084,106.932784 C98.933422,107.150411 99.5947832,107.259225 100.307018,107.259225 C101.313192,107.259225 101.814865,106.891802 101.814865,106.156956 C101.814865,105.528098 101.444616,105.215788 100.702705,105.215788 L99.9509008,105.215788 C98.728513,105.215788 98.1151994,104.684438 98.1151994,103.621738 C98.1151994,102.503925 98.899506,101.945725 100.465293,101.945725 C101.147852,101.945725 101.780949,102.027688 102.367413,102.190202 L102.367413,102.885479 C101.780949,102.667852 101.147852,102.559038 100.465293,102.559038 C99.4025928,102.559038 98.8712427,102.913743 98.8712427,103.621738 C98.8712427,104.24777 99.2315998,104.561493 99.9509008,104.561493 L100.702705,104.561493 C101.949116,104.561493 102.572322,105.092843 102.572322,106.156956 C102.572322,107.300207 101.816279,107.873952 100.307018,107.873952 C99.5947832,107.873952 98.933422,107.790575 98.3201084,107.628061" id="Fill-27" fill="#004899" mask="url(#mask-2)"></path>
                        <polygon id="Fill-28" fill="#C9368C" mask="url(#mask-2)" points="109.475633 101.986706 109.475633 102.919395 106.711482 102.919395 106.711482 104.3905 109.337143 104.3905 109.337143 105.358518 106.700177 105.358518 106.700177 107.831557 105.637477 107.831557 105.637477 101.986706"></polygon>
                        <path d="M110.395603,107.823078 L110.395603,101.986706 L113.053767,101.986706 C114.246478,101.986706 114.842834,102.508164 114.842834,103.552493 C114.842834,104.257663 114.377902,104.842713 113.449453,105.304818 L115.300699,107.831557 L113.936995,107.831557 L112.15782,105.286447 L112.15782,104.790426 C113.192257,104.61378 113.710889,104.212441 113.710889,103.583583 C113.710889,103.153981 113.469237,102.937766 112.983109,102.937766 L111.499285,102.937766 L111.499285,107.823078 L110.395603,107.823078" id="Fill-29" fill="#C9368C" mask="url(#mask-2)"></path>
                    </g>
                    <g id="Group-36" transform="translate(115.812265, 100.433638)">
                        <path d="M1.90494645,0 L3.20929776,0 L2.23280073,1.0584606 L1.31565663,1.0584606 L1.90494645,0 Z M4.00208334,1.55306836 L4.00208334,2.48575727 L1.07541858,2.48575727 L1.07541858,3.95686206 L3.86359316,3.95686206 L3.86359316,4.92488009 L1.06270009,4.92488009 L1.06270009,6.45816414 L4.0600231,6.45816414 L4.0600231,7.39791888 L0,7.39791888 L0,1.55306836 L4.00208334,1.55306836 Z" id="Fill-31" fill="#C9368C"></path>
                        <g id="Group-35" transform="translate(4.855635, 1.512087)">
                            <mask id="mask-4" fill="white">
                                <use xlink:href="#path-3"></use>
                            </mask>
                            <g id="Clip-34"></g>
                            <path d="M2.93514375,4.98705936 C4.11231021,4.98705936 4.70160002,4.30732698 4.70160002,2.94644907 C4.70160002,1.60959496 4.11231021,0.939754738 2.93514375,0.939754738 C1.72830082,0.939754738 1.12487936,1.60959496 1.12487936,2.94644907 C1.12487936,4.30732698 1.72830082,4.98705936 2.93514375,4.98705936 M2.00822828e-14,2.97188604 C2.00822828e-14,0.989215514 0.979323359,0 2.93514375,0 C4.86270083,0 5.82506621,0.989215514 5.82506621,2.97188604 C5.82506621,4.6012653 5.22023158,5.56363068 4.00632283,5.85756901 L4.95455656,6.96125089 L4.10100489,7.6113068 L2.77262977,5.92822726 C1.01182615,5.92822726 0.0876162312,4.94183807 2.00822828e-14,2.97188604" id="Fill-33" fill="#C9368C" mask="url(#mask-4)"></path>
                        </g>
                    </g>
                    <g id="Group-53" transform="translate(58.481314, 65.907424)">
                        <path d="M69.034784,39.6263264 L69.034784,36.0792822 L70.1186815,36.0792822 L70.1186815,39.6263264 C70.1186815,40.5590153 70.5949182,41.0253598 71.5488045,41.0253598 C72.5026909,41.0253598 72.9803407,40.5590153 72.9803407,39.6263264 L72.9803407,36.0792822 L74.0642383,36.0792822 L74.0642383,39.6263264 C74.0642383,41.1864606 73.2248183,41.9665277 71.5488045,41.9665277 C69.874204,41.9665277 69.034784,41.1864606 69.034784,39.6263264" id="Fill-37" fill="#C9368C"></path>
                        <polygon id="Fill-39" fill="#C9368C" points="79.2915357 36.0792822 79.2915357 37.0119711 76.3648709 37.0119711 76.3648709 38.4830759 79.1530455 38.4830759 79.1530455 39.4510939 76.3521524 39.4510939 76.3521524 40.984378 79.3494755 40.984378 79.3494755 41.9241327 75.2894524 41.9241327 75.2894524 36.0792822"></polygon>
                        <polygon id="Fill-41" fill="#C9368C" points="80.3499963 41.9241327 80.3499963 36.0792822 81.4324807 36.0792822 84.5202463 40.3385616 84.5202463 36.0792822 85.5617489 36.0792822 85.5617489 41.9241327 84.4792645 41.9241327 81.3929121 37.5744108 81.3929121 41.9241327"></polygon>
                        <path d="M91.4475812,41.6796552 C90.9444944,41.8704324 90.3721626,41.9665277 89.7305857,41.9665277 C87.6320356,41.9665277 86.5834672,40.950462 86.5834672,38.9197439 C86.5834672,36.9992526 87.6320356,36.0383004 89.7305857,36.0383004 C90.3721626,36.0383004 90.9444944,36.1343956 91.4475812,36.3237597 L91.4475812,37.3059094 C90.9444944,37.0868688 90.3990127,36.9780551 89.8125493,36.9780551 C88.4092764,36.9780551 87.7083465,37.6252847 87.7083465,38.9197439 C87.7083465,40.3244299 88.4092764,41.0253598 89.8125493,41.0253598 C90.3990127,41.0253598 90.9444944,40.9151329 91.4475812,40.6975055 L91.4475812,41.6796552" id="Fill-43" fill="#C9368C"></path>
                        <polygon id="Fill-45" fill="#C9368C" points="96.4713828 36.0792822 96.4713828 37.0119711 93.5447181 37.0119711 93.5447181 38.4830759 96.3328927 38.4830759 96.3328927 39.4510939 93.5319996 39.4510939 93.5319996 40.984378 96.5293226 40.984378 96.5293226 41.9241327 92.4692995 41.9241327 92.4692995 36.0792822"></polygon>
                        <path d="M97.4280956,41.6796552 L97.4280956,40.6975055 C98.014559,40.9151329 98.6773334,41.0253598 99.4150056,41.0253598 C100.312365,41.0253598 100.758926,40.7257688 100.758926,40.1265868 C100.758926,39.6899188 100.484771,39.4722914 99.9336371,39.4722914 L99.0193194,39.4722914 C97.8223686,39.4722914 97.2231866,38.9268097 97.2231866,37.8372595 C97.2231866,36.6374824 98.0753251,36.0383004 99.778189,36.0383004 C100.432484,36.0383004 101.052864,36.1343956 101.637914,36.3237597 L101.637914,37.3059094 C101.052864,37.0868688 100.432484,36.9780551 99.778189,36.9780551 C98.7974525,36.9780551 98.3070842,37.2635145 98.3070842,37.8372595 C98.3070842,38.2725143 98.5444959,38.4915549 99.0193194,38.4915549 L99.9336371,38.4915549 C101.206899,38.4915549 101.842823,39.0356234 101.842823,40.1265868 C101.842823,41.3518009 101.034493,41.9665277 99.4150056,41.9665277 C98.6773334,41.9665277 98.014559,41.8704324 97.4280956,41.6796552" id="Fill-47" fill="#C9368C"></path>
                        <path d="M21.6767978,0.395452274 C17.7764624,-0.831174964 13.7418762,0.891473196 11.8439956,4.23926113 L0.155707741,24.1239061 C-0.286612911,24.8898416 0.265934612,25.8479674 1.15198908,25.8479674 L4.36835266,25.8479674 C4.77817052,25.8479674 5.15831191,25.6289269 5.36322084,25.2728093 L16.2276335,6.78295816 L16.231873,6.77447917 C16.6303855,6.08061515 17.242286,5.50687015 18.0011556,5.25391361 C20.2918961,4.4908045 22.4215358,6.18518936 22.4215358,8.36711615 L22.4215358,12.5288871 C22.4215358,12.5825874 22.3777277,12.6263955 22.3254406,12.6263955 L15.0123116,12.6263955 C14.5657514,12.6263955 14.1531073,12.8652204 13.9312404,13.2538408 L12.3244717,16.064626 C11.9952043,16.6397842 12.4106748,17.3562588 13.0734492,17.3562588 L22.3254406,17.3562588 C22.3777277,17.3562588 22.4215358,17.3986538 22.4215358,17.4523541 L22.4215358,24.5407898 C22.4215358,25.2629171 23.0065861,25.8479674 23.7287134,25.8479674 L26.1833811,25.8479674 C26.9055084,25.8479674 27.4891456,25.2629171 27.4891456,24.5407898 L27.4905587,8.76704185 C27.4905587,5.0362862 25.2351473,1.51467897 21.6767978,0.395452274" id="Fill-49" fill="#004899"></path>
                        <path d="M62.8182711,11.8802444 L62.8182711,14.4564442 C62.8182711,15.1446556 63.3764712,15.7028558 64.0646826,15.7028558 L75.191944,15.7028558 C75.2456442,15.7028558 75.2880392,15.6590477 75.2880392,15.6067605 L75.2880392,10.7313412 C75.2880392,10.677641 75.2456442,10.635246 75.191944,10.635246 L64.0646826,10.635246 C63.3764712,10.635246 62.8182711,11.192033 62.8182711,11.8802444" id="Fill-51" fill="#004899"></path>
                    </g>
                    <g id="Group-58" transform="translate(114.770762, 66.076770)" fill="#004899">
                        <path d="M0,8.2415784 L0,24.3672044 C0,25.0907449 0.587876648,25.6786216 1.3128303,25.6786216 L3.76184528,25.6786216 C4.48397261,25.6786216 5.06902293,25.0935713 5.06902293,24.3714439 L5.06902293,8.2415784 C5.06902293,6.48925377 6.49066694,5.06760976 8.24299156,5.06760976 L20.2435889,5.06760976 C20.2972892,5.06760976 20.3410973,5.02380165 20.3410973,4.97151454 L20.3410973,0.0960952214 C20.3410973,0.0423949506 20.2972892,0 20.2435889,0 L8.24299156,0 C3.69118703,0 0,3.68977387 0,8.2415784" id="Fill-54"></path>
                        <path d="M45.6734934,23.7454118 L38.3349275,16.2090028 C38.2812272,16.1538893 38.3123169,16.0662731 38.3872146,16.0521415 C42.5503987,15.3257746 45.6296853,11.4028285 44.9951742,6.91461644 C44.4242556,2.86731183 40.7104579,0 36.6221715,0 L22.9441473,0 C22.890447,0 22.8466389,0.0423949506 22.8466389,0.0960952214 L22.8466389,24.3672044 C22.8466389,25.0907449 23.4345155,25.6786216 24.158056,25.6786216 L26.6042447,25.6786216 C27.3277852,25.6786216 27.9156618,25.0907449 27.9156618,24.3672044 L27.9156618,5.16511815 C27.9156618,5.11141788 27.9580568,5.06760976 28.011757,5.06760976 L36.8313199,5.06760976 C38.2473113,5.06760976 39.5884049,5.96355638 39.9204986,7.33997911 C40.3995616,9.32547597 38.9001935,11.1046507 36.9910076,11.1046507 L31.4174847,11.1046507 C29.6510284,11.1046507 29.3415453,13.8348855 30.8437397,15.3823012 L40.2045448,25.305546 C40.4221722,25.5429577 40.7302422,25.6786216 41.0524438,25.6786216 L44.8340734,25.6786216 C45.8388337,25.6786216 46.3588785,24.4802576 45.6734934,23.7454118" id="Fill-56"></path>
                    </g>
                    <path d="M110.31364,66.07677 L107.847667,66.07677 C107.122713,66.07677 106.53625,66.6632335 106.53625,67.3881871 L106.53625,82.8241886 C106.53625,82.9174575 106.416131,82.9570262 106.361017,82.8807153 L95.2733246,67.4885219 C94.4155334,66.2958106 92.8568124,65.7573947 91.3772286,66.2689604 C89.9668899,66.7579155 89.1175777,68.2078228 89.1175777,69.7015383 L89.1175777,90.4439744 C89.1175777,91.1675149 89.7040412,91.755475 90.4289949,91.755475 L92.8949678,91.755475 C93.6185083,91.755475 94.206385,91.1675149 94.206385,90.4439744 L94.206385,75.0136256 C94.206385,74.9203567 94.326504,74.8807881 94.3816174,74.957099 L105.462244,90.3422266 C106.322862,91.5349378 107.882996,92.0747669 109.363993,91.561788 C110.775745,91.0728329 111.625057,89.6200992 111.625057,88.1263838 L111.625057,67.3881871 C111.625057,66.6632335 111.038594,66.07677 110.31364,66.07677" id="Fill-59" fill="#004899"></path>
                    <g id="Group-63" transform="translate(47.712691, 0.000000)">
                        <mask id="mask-6" fill="white">
                            <use xlink:href="#path-5"></use>
                        </mask>
                        <g id="Clip-62"></g>
                        <path d="M2.0603946,0.68114554 C-0.6867982,22.4523658 -0.6867982,43.6215778 2.0603946,65.3984508 L2.0603946,65.3984508 C2.1126817,65.7644605 2.52391273,66.0753568 2.96340705,66.07677 L2.96340705,66.07677 C3.40855403,66.07677 3.81413239,65.7701132 3.86641949,65.3942113 L3.86641949,65.3942113 C6.61219913,43.6258173 6.61219913,22.4566053 3.86641949,0.676906045 L3.86641949,0.676906045 C3.81413239,0.310896304 3.40007504,0 2.96340705,0 L2.96340705,0 C2.51826007,0 2.1126817,0.305243644 2.0603946,0.68114554" id="Fill-61" fill="url(#linearGradient-7)" mask="url(#mask-6)"></path>
                    </g>
                    <g id="Group-66" transform="translate(37.876179, 13.734551)">
                        <mask id="mask-9" fill="white">
                            <use xlink:href="#path-8"></use>
                        </mask>
                        <g id="Clip-65"></g>
                        <path d="M1.20066039,0.610487289 C-0.400455579,13.187656 -0.400455579,25.4200124 1.20207355,38.0014205 L1.20207355,38.0014205 C1.25012116,38.322209 1.67265751,38.6062552 2.10367284,38.6062552 L2.10367284,38.6062552 C2.53610133,38.6062552 2.95722451,38.322209 3.00527212,37.9971811 L3.00527212,37.9971811 C4.60780125,25.4200124 4.60780125,13.1890691 3.00385895,0.604834629 L3.00385895,0.604834629 C2.95722451,0.284046169 2.53610133,0 2.10367284,0 L2.10367284,0 C1.67265751,0 1.25012116,0.285459334 1.20066039,0.610487289" id="Fill-64" fill="url(#linearGradient-10)" mask="url(#mask-9)"></path>
                    </g>
                    <g id="Group-69" transform="translate(17.925292, 19.832358)">
                        <mask id="mask-12" fill="white">
                            <use xlink:href="#path-11"></use>
                        </mask>
                        <g id="Clip-68"></g>
                        <path d="M0.91785068,0.561026513 C-0.305950227,9.07110626 -0.305950227,17.3466006 0.91785068,25.8566804 L0.91785068,25.8566804 C0.965898291,26.1167027 1.42517692,26.4120542 1.96641913,26.4120542 L1.96641913,26.4120542 C2.52603247,26.4120542 2.96835312,26.1152896 3.01640073,25.8482014 L3.01640073,25.8482014 C4.24020164,17.340948 4.24020164,9.0654536 3.01498757,0.553960688 L3.01498757,0.553960688 C2.96835312,0.293938324 2.51048766,0 1.96641913,0 L1.96641913,0 C1.40680578,0 0.965898291,0.296764654 0.91785068,0.561026513" id="Fill-67" fill="url(#linearGradient-13)" mask="url(#mask-12)"></path>
                    </g>
                    <g id="Group-72" transform="translate(27.490476, 10.323170)">
                        <mask id="mask-15" fill="white">
                            <use xlink:href="#path-14"></use>
                        </mask>
                        <g id="Clip-71"></g>
                        <path d="M1.47516768,0.611900454 C-0.491958025,15.4840491 -0.491958025,29.9463799 1.47658085,44.8227681 L1.47658085,44.8227681 C1.52604162,45.1506224 1.93727264,45.4290159 2.37818013,45.4290159 L2.37818013,45.4290159 C2.81060863,45.4290159 3.2317318,45.1435566 3.28119258,44.8171154 L3.28119258,44.8171154 C5.24549196,29.9421404 5.24549196,15.4798096 3.27977941,0.606247794 L3.27977941,0.606247794 C3.23031864,0.278393509 2.81626129,0 2.37818013,0 L2.37818013,0 C1.93868581,0 1.52604162,0.279806674 1.47516768,0.611900454" id="Fill-70" fill="url(#linearGradient-16)" mask="url(#mask-15)"></path>
                    </g>
                    <g id="Group-75" transform="translate(59.289515, 10.323170)">
                        <mask id="mask-18" fill="white">
                            <use xlink:href="#path-17"></use>
                        </mask>
                        <g id="Clip-74"></g>
                        <path d="M1.44973071,0.623205774 C-0.483479034,15.4868755 -0.483479034,29.9407273 1.45114388,44.8100496 L1.45114388,44.8100496 C1.49919149,45.1449697 1.914662,45.4290159 2.35133,45.4290159 L2.35133,45.4290159 C2.78375849,45.4290159 3.20488167,45.1379039 3.25434244,44.8058101 L3.25434244,44.8058101 C5.18755219,29.9379009 5.18755219,15.4840491 3.25434244,0.618966279 L3.25434244,0.618966279 C3.20488167,0.284046169 2.79223748,0 2.35133,0 L2.35133,0 C1.914662,0 1.49919149,0.285459334 1.44973071,0.623205774" id="Fill-73" fill="url(#linearGradient-19)" mask="url(#mask-18)"></path>
                    </g>
                    <g id="Group-78" transform="translate(69.625404, 20.403277)">
                        <mask id="mask-21" fill="white">
                            <use xlink:href="#path-20"></use>
                        </mask>
                        <g id="Clip-77"></g>
                        <path d="M0.788369524,0.548308028 C-0.26302525,8.68248588 -0.26302525,16.5933837 0.789782689,24.7289747 L0.789782689,24.7289747 C0.833590805,25.0158472 1.25471398,25.2688037 1.68996881,25.2688037 L1.68996881,25.2688037 C2.12381047,25.2688037 2.54493364,25.0130209 2.58874176,24.7219089 L2.58874176,24.7219089 C3.63872337,16.5891442 3.63872337,8.67824639 2.58732859,0.539829038 L2.58732859,0.539829038 C2.54493364,0.254369704 2.12381047,0 1.68996881,0 L1.68996881,0 C1.25471398,0 0.833590805,0.255782869 0.788369524,0.548308028" id="Fill-76" fill="url(#linearGradient-22)" mask="url(#mask-21)"></path>
                    </g>
                    <g id="Group-81" transform="translate(78.632564, 15.673413)">
                        <mask id="mask-24" fill="white">
                            <use xlink:href="#path-23"></use>
                        </mask>
                        <g id="Clip-80"></g>
                        <path d="M1.09679277,0.594942473 C-0.365833031,11.8762388 -0.365833031,22.8494652 1.09820593,34.1406537 L1.09820593,34.1406537 C1.14484038,34.45155 1.56596355,34.7285304 1.99839205,34.7285304 L1.99839205,34.7285304 C2.43082054,34.7285304 2.85194372,34.4501369 2.89999133,34.1335879 L2.89999133,34.1335879 C4.36261713,22.8494652 4.36261713,11.8748257 2.89999133,0.589289813 L2.89999133,0.589289813 C2.85194372,0.276980344 2.43082054,0 1.99839205,0 L1.99839205,0 C1.56596355,0 1.14484038,0.278393509 1.09679277,0.594942473" id="Fill-79" fill="url(#linearGradient-25)" mask="url(#mask-24)"></path>
                    </g>
                    <g id="Group-84" transform="translate(88.259928, 22.250283)">
                        <mask id="mask-27" fill="white">
                            <use xlink:href="#path-26"></use>
                        </mask>
                        <g id="Clip-83"></g>
                        <path d="M0.765228858,0.460691796 C-0.255076286,7.4092242 -0.255076286,14.1698057 0.765228858,21.1225776 L0.765228858,21.1225776 C0.803384314,21.3345523 1.19765735,21.5747904 1.66682814,21.5747904 L1.66682814,21.5747904 C2.13599893,21.5747904 2.53027197,21.3331391 2.56842742,21.1155117 L2.56842742,21.1155117 C3.5873194,14.1669793 3.5873194,7.40639787 2.56701426,0.452212806 L2.56701426,0.452212806 C2.5288588,0.240238053 2.13599893,0 1.66682814,0 L1.66682814,0 C1.19765735,0 0.803384314,0.243064383 0.765228858,0.460691796" id="Fill-82" fill="url(#linearGradient-28)" mask="url(#mask-27)"></path>
                    </g>
                    <g id="Group-87" transform="translate(97.222750, 25.355007)">
                        <mask id="mask-30" fill="white">
                            <use xlink:href="#path-29"></use>
                        </mask>
                        <g id="Clip-86"></g>
                        <path d="M0.312486339,0.647229579 C-0.104397342,5.50993041 -0.104397342,9.85541285 0.313899504,14.729419 L0.313899504,14.729419 C0.359120785,15.0657523 0.777417631,15.3653433 1.21125929,15.3653433 L1.21125929,15.3653433 C1.64368779,15.3653433 2.06198463,15.0629259 2.10579275,14.7181137 L2.10579275,14.7181137 C2.52267643,9.85399968 2.52267643,5.50851725 2.10437958,0.634511094 L2.10437958,0.634511094 C2.06198463,0.299590984 1.64368779,0 1.21125929,0 L1.21125929,0 C0.777417631,0 0.359120785,0.302417314 0.312486339,0.647229579" id="Fill-85" fill="url(#linearGradient-31)" mask="url(#mask-30)"></path>
                    </g>
                    <g id="Group-90" transform="translate(8.276024, 15.874083)">
                        <mask id="mask-33" fill="white">
                            <use xlink:href="#path-32"></use>
                        </mask>
                        <g id="Clip-89"></g>
                        <path d="M1.1073915,0.579397658 C-0.369365944,11.7363355 -0.369365944,22.5894428 1.10880467,33.7534465 L1.10880467,33.7534465 C1.15543911,34.057277 1.57656229,34.3271915 2.00899078,34.3271915 L2.00899078,34.3271915 C2.44141928,34.3271915 2.86254246,34.057277 2.91059007,33.7477938 L2.91059007,33.7477938 C4.38593435,22.5922692 4.38593435,11.740575 2.9091769,0.573744998 L2.9091769,0.573744998 C2.86254246,0.269914519 2.44141928,0 2.00899078,0 L2.00899078,0 C1.57656229,0 1.15543911,0.271327684 1.1073915,0.579397658" id="Fill-88" fill="url(#linearGradient-34)" mask="url(#mask-33)"></path>
                    </g>
                    <g id="Group-93" transform="translate(0.000000, 26.180295)">
                        <mask id="mask-36" fill="white">
                            <use xlink:href="#path-35"></use>
                        </mask>
                        <g id="Clip-92"></g>
                        <path d="M0.426775836,0.651469074 C0.146969162,2.6299001 0.00423949506,4.70583952 0,6.7831921 L0,6.7831921 L0,6.93440075 C0.00423949506,9.01034017 0.145555997,11.0848664 0.425362671,13.0590579 L0.425362671,13.0590579 C0.470583952,13.4095229 0.890293963,13.7161797 1.32272246,13.7161797 L1.32272246,13.7161797 C1.75515095,13.7161797 2.1734478,13.410936 2.21866908,13.0632974 L2.21866908,13.0632974 C2.78817458,9.05980094 2.78817458,4.65355241 2.21866908,0.655708569 L2.21866908,0.655708569 C2.1734478,0.305243644 1.75515095,0 1.32272246,0 L1.32272246,0 C0.890293963,0 0.470583952,0.303830479 0.426775836,0.651469074" id="Fill-91" fill="url(#linearGradient-37)" mask="url(#mask-36)"></path>
                    </g>
                </g>
            </g>
        </g>
    </g>
</svg>